<svg xmlns="http://www.w3.org/2000/svg" width="24" height="24" viewBox="0 0 24 24" fill="none">
  <path
    d="M19.14 12.94C19.18 12.64 19.2 12.33 19.2 12C19.2 11.68 19.18 11.36 19.13 11.06L21.12 9.5C21.3 9.36 21.35 9.11 21.24 8.9L19.35 5.63C19.24 5.42 18.99 5.34 18.77 5.42L16.43 6.36C15.95 6 15.43 5.7 14.86 5.48L14.5 3C14.47 2.77 14.27 2.6 14.04 2.6H10.26C10.03 2.6 9.83 2.77 9.8 3L9.44 5.49C8.87 5.71 8.35 6.01 7.87 6.37L5.53 5.43C5.31 5.35 5.06 5.43 4.95 5.64L3.06 8.91C2.94 9.12 2.99 9.37 3.18 9.51L5.17 11.07C5.12 11.37 5.1 11.69 5.1 12.01C5.1 12.33 5.12 12.65 5.17 12.95L3.18 14.51C2.99 14.65 2.94 14.9 3.06 15.11L4.95 18.38C5.06 18.59 5.31 18.67 5.53 18.59L7.87 17.65C8.35 18.01 8.87 18.31 9.44 18.53L9.8 21.02C9.83 21.25 10.03 21.42 10.26 21.42H14.04C14.27 21.42 14.47 21.25 14.5 21.02L14.86 18.53C15.43 18.31 15.95 18.01 16.43 17.65L18.77 18.59C18.99 18.67 19.24 18.59 19.35 18.38L21.24 15.11C21.35 14.9 21.3 14.65 21.12 14.51L19.14 12.94ZM12.15 15.6C10.17 15.6 8.55 13.98 8.55 12C8.55 10.02 10.17 8.4 12.15 8.4C14.13 8.4 15.75 10.02 15.75 12C15.75 13.98 14.13 15.6 12.15 15.6Z"
    fill="#1B2530"/>
</svg>
